<svg xmlns="http://www.w3.org/2000/svg" viewBox="0 0 935.25 197.62"><defs><style>.cls-1,.cls-3{fill:#10559d;}.cls-2{fill:#d10465;}.cls-3{fill-rule:evenodd;}</style></defs><title>Fichier 1</title><g id="Calque_2" data-name="Calque 2"><g id="Calque_1-2" data-name="Calque 1"><path class="cls-1" d="M112.1,68.88l.53.41v58.87a34.56,34.56,0,0,1-5.56.45,43,43,0,0,1-5.56-.36L83,91.92c-1.92-3.84-3.67-7.87-5.56-12h-.36c.55,9,.8,16,.8,21.24v27.13a26.17,26.17,0,0,1-4.33.36,25.49,25.49,0,0,1-4.28-.36v-59a31.22,31.22,0,0,1,5.55-.41,36.89,36.89,0,0,1,5.56.33l18.35,36.41c.8,1.7,1.92,4.06,3.2,7s2.16,4.81,2.52,5.56h.39q-.72-11.11-.72-21.82V74.71a6.92,6.92,0,0,1,1.11-4.42A4.76,4.76,0,0,1,109.07,69Z"/><path class="cls-1" d="M137.22,83.39a33.25,33.25,0,0,0-2.11,7.33,50.65,50.65,0,0,0-.61,7.68,66.44,66.44,0,0,0,.61,8.69,25.79,25.79,0,0,0,2.28,7.65,13.7,13.7,0,0,0,4.5,5.39,12.11,12.11,0,0,0,7.29,2.06,11.5,11.5,0,0,0,7.7-2.39,15.7,15.7,0,0,0,4.33-6,27.27,27.27,0,0,0,2-7.73,64.18,64.18,0,0,0,0-14.92,28.27,28.27,0,0,0-1.91-7.68,14.93,14.93,0,0,0-4.45-5.69,11.84,11.84,0,0,0-7.53-2.48,12.93,12.93,0,0,0-7.45,2.09,12.32,12.32,0,0,0-4.51,5.78Zm-3.14,40.94q-9.3-8.07-9.31-25.52a46.88,46.88,0,0,1,1.61-12.64,27.86,27.86,0,0,1,4.7-9.57,20.75,20.75,0,0,1,7.67-6.14,26.18,26.18,0,0,1,20.79,0,20,20,0,0,1,7.7,6.09,28.66,28.66,0,0,1,4.51,9.62A47.08,47.08,0,0,1,173.33,99a47.15,47.15,0,0,1-1.58,12.79,28.64,28.64,0,0,1-4.76,9.59,19.65,19.65,0,0,1-7.67,6.08A23.72,23.72,0,0,1,149,129.53a21.71,21.71,0,0,1-14.87-5.12"/><path class="cls-1" d="M228.67,69.21v38.25a21.2,21.2,0,0,1-5.92,16.23,22.18,22.18,0,0,1-16.06,5.72,22.06,22.06,0,0,1-16-5.55,21.48,21.48,0,0,1-5.89-16.26V69.29l.53-.52h3.56a4.93,4.93,0,0,1,3.94,1.39A6.82,6.82,0,0,1,194,74.63v32.94a15.85,15.85,0,0,0,3.2,10.75,11.85,11.85,0,0,0,9.45,3.67c8.34,0,12.64-4.81,12.62-14.42V69.29c.75,0,1.47-.19,2.22-.25h5a14.69,14.69,0,0,1,2.19.17"/><path class="cls-1" d="M302.69,116.38v4.42c1.72-.17,3.64-.28,5.75-.28h22.49a15.18,15.18,0,0,1-.25,3.56c-.5,2.78-2.47,4.33-5.89,4.33H298.85a5,5,0,0,1-3.83-1.5,5.78,5.78,0,0,1-1.42-4.19v-53l.58-.53h34.94a19.58,19.58,0,0,1,.25,3.67,11.49,11.49,0,0,1-.69,4.11H302.61V94.75h21.82a15.09,15.09,0,0,1,.44,3.84,14.25,14.25,0,0,1-.44,3.84H302.72Z"/><path class="cls-1" d="M359.81,120.27h17.26a27,27,0,0,1-.25,3.7,5.25,5.25,0,0,1-5.94,4.45H348.11a5.2,5.2,0,0,1-3.84-1.5,5.87,5.87,0,0,1-1.47-4.19V69.49l.61-.5h3.53A5.07,5.07,0,0,1,351,70.35a6.85,6.85,0,0,1,1.19,4.5v45.81a69.32,69.32,0,0,1,7.62-.39"/><path class="cls-1" d="M404.31,120.27h17.4a20.82,20.82,0,0,1-.28,3.7c-.5,3-2.5,4.44-6,4.44H392.72a5.29,5.29,0,0,1-3.84-1.5,5.87,5.87,0,0,1-1.47-4.19V69.49l.47-.5h3.25a5.13,5.13,0,0,1,4.09,1.36,6.85,6.85,0,0,1,1.17,4.5v45.81c2.59-.26,5.2-.39,7.81-.39"/><path class="cls-1" d="M440.8,116.38v4.42c1.76-.17,3.65-.28,5.76-.28H469a17,17,0,0,1-.25,3.56,5.17,5.17,0,0,1-5.89,4.33H437a5.09,5.09,0,0,1-3.84-1.5,5.56,5.56,0,0,1-1.42-4.19v-53l.59-.53h34.94a21.43,21.43,0,0,1,.25,3.67,11.5,11.5,0,0,1-.7,4.11h-26.1V94.7h21.79a14.54,14.54,0,0,1,.45,3.83,13.78,13.78,0,0,1-.45,3.84H440.89Z"/><path class="cls-1" d="M475.63,123a9.83,9.83,0,0,1,3.84-7.12,31.83,31.83,0,0,0,17.45,5.89,12.87,12.87,0,0,0,8.17-2.22,7,7,0,0,0,3-5.89q0-6-7.9-9.34L490,99.87c-7.93-3.39-11.9-8.34-11.9-15a14.84,14.84,0,0,1,1.47-6.64,16.67,16.67,0,0,1,4.26-5.39,16.91,16.91,0,0,1,6.28-3.56,25.94,25.94,0,0,1,8.11-1.22,39.75,39.75,0,0,1,18.07,4.5,9.68,9.68,0,0,1-3.39,7.2A34.28,34.28,0,0,0,498,75.71,11.85,11.85,0,0,0,490.45,78a7,7,0,0,0-1.53,9.83c.14.19.29.37.44.54a15.52,15.52,0,0,0,5.56,3.25L505,96a25.31,25.31,0,0,1,9.79,6.72,14.26,14.26,0,0,1,3.22,9.37,15.94,15.94,0,0,1-5.39,12.59c-3.64,3.23-9.12,4.81-16.48,4.81A34.35,34.35,0,0,1,475.8,123"/><path class="cls-1" d="M568,76.3H557.54v45H568q14.76,0,14.78-22.52c0-7.86-1.25-13.56-3.69-17.23a12.63,12.63,0,0,0-11.12-5.28m15.12,48a13.89,13.89,0,0,1-3.09,1.92,24.3,24.3,0,0,1-3.83,1.39,37.73,37.73,0,0,1-4.23.86,31.86,31.86,0,0,1-4,.3h-6.69l-12.26-.39-.53-.58V69.74l.53-.64q7.56-.25,19.12-.22a25.59,25.59,0,0,1,11.59,2.33,19.34,19.34,0,0,1,7.53,6.39,25.45,25.45,0,0,1,4.09,9.57A57.74,57.74,0,0,1,592.4,98.9a51.7,51.7,0,0,1-1.92,14.84,21.19,21.19,0,0,1-7.28,10.59"/><path class="cls-1" d="M613.5,83.39a34.08,34.08,0,0,0-2.09,7.33,47.07,47.07,0,0,0-.61,7.68,61.61,61.61,0,0,0,.61,8.69,26.53,26.53,0,0,0,2.25,7.65,13.87,13.87,0,0,0,4.48,5.39,12.22,12.22,0,0,0,7.31,2.06,11.41,11.41,0,0,0,7.67-2.39,15.72,15.72,0,0,0,4.34-6,26.62,26.62,0,0,0,1.91-7.64,62,62,0,0,0,.48-7.45,63.34,63.34,0,0,0-.48-7.54,27.29,27.29,0,0,0-1.91-7.64,14.91,14.91,0,0,0-4.37-5.84,12.15,12.15,0,0,0-7.7-2.36A13,13,0,0,0,618,77.47a12.46,12.46,0,0,0-4.47,5.83Zm-3.15,41q-9.27-7.95-9.28-25.46a46.19,46.19,0,0,1,1.61-12.76,28.28,28.28,0,0,1,4.67-9.56,21.12,21.12,0,0,1,7.7-6.14,26.43,26.43,0,0,1,20.79,0,19.91,19.91,0,0,1,7.67,6.09,28.32,28.32,0,0,1,4.42,9.59A47.12,47.12,0,0,1,649.55,99a47.19,47.19,0,0,1-1.62,12.79,28.73,28.73,0,0,1-4.64,9.67,20.49,20.49,0,0,1-7.56,6,24.48,24.48,0,0,1-10.39,2.12,21.63,21.63,0,0,1-15-5.2"/><path class="cls-1" d="M704.53,68.88l.52.41v58.87a34.37,34.37,0,0,1-5.56.45,43,43,0,0,1-5.55-.36L675.42,91.92c-1.91-3.84-3.67-7.87-5.56-12h-.33c.5,9,.78,16,.78,21.24v27.13a26.21,26.21,0,0,1-4.34.36,25.22,25.22,0,0,1-4.25-.36v-59a29.62,29.62,0,0,1,5.56-.41,36.89,36.89,0,0,1,5.56.33l18.32,36.41c.8,1.7,1.91,4.06,3.19,7s2.17,4.81,2.53,5.56h.33c-.44-7.39-.69-14.67-.69-21.82V74.71a6.92,6.92,0,0,1,1.11-4.42A4.76,4.76,0,0,1,701.47,69Z"/><path class="cls-1" d="M763.59,68.88l.53.41v58.87a34.56,34.56,0,0,1-5.56.45,43,43,0,0,1-5.56-.36L734.49,91.92c-1.92-3.84-3.67-7.87-5.56-12h-.36c.53,9,.78,16,.78,21.24v27.13a26.38,26.38,0,0,1-4.34.36,25.58,25.58,0,0,1-4.28-.36v-59a31.4,31.4,0,0,1,5.56-.41,35.63,35.63,0,0,1,5.56.33l18.37,36.41c.81,1.7,1.89,4.06,3.22,7s2.17,4.81,2.51,5.56h.36q-.7-11.11-.7-21.82V74.71a6.91,6.91,0,0,1,1.09-4.42A4.82,4.82,0,0,1,760.53,69Z"/><path class="cls-1" d="M788.88,116.38v4.42c1.75-.17,3.67-.28,5.78-.28h22.46a19.34,19.34,0,0,1-.27,3.56,5.19,5.19,0,0,1-5.88,4.36l-.13,0h-25.9a5.2,5.2,0,0,1-3.84-1.5,6,6,0,0,1-1.44-4.19v-53l.63-.53h34.92a21.43,21.43,0,0,1,.25,3.67,11.08,11.08,0,0,1-.7,4.11H788.88V94.75h21.74a15.09,15.09,0,0,1,.44,3.84,13.49,13.49,0,0,1-.44,3.84H788.88Z"/><path class="cls-1" d="M823.79,123a9.82,9.82,0,0,1,3.73-7.12A31.83,31.83,0,0,0,845,121.74a12.88,12.88,0,0,0,8.12-2.25,6.94,6.94,0,0,0,3-5.89q0-6-7.89-9.34l-10.26-4.42c-7.92-3.39-11.89-8.34-11.89-15a14.85,14.85,0,0,1,1.47-6.65,16.59,16.59,0,0,1,4.08-5.39,16.83,16.83,0,0,1,6.31-3.56A26,26,0,0,1,846,68.07a39.62,39.62,0,0,1,18,4.5,9.86,9.86,0,0,1-3.2,7.2A34.4,34.4,0,0,0,846,75.69a12,12,0,0,0-7.56,2.3,7,7,0,0,0-2.78,5,6.93,6.93,0,0,0,1.75,5.42,15.27,15.27,0,0,0,5.31,3.36l10.09,4.34a24.94,24.94,0,0,1,9.79,6.73,14.24,14.24,0,0,1,3.25,9.36,16,16,0,0,1-5.56,12.59c-3.59,3.23-9.09,4.81-16.43,4.81a34.45,34.45,0,0,1-20.18-6.47"/><path class="cls-2" d="M256.16,127.55c1.17-10.37,11.12-81.24,69.49-106.59-47.25,33.77-56.84,96.75-58.37,106.56a1.56,1.56,0,0,1-1.56,1.31h-8.34a1.15,1.15,0,0,1-1.14-1.28"/><path class="cls-1" d="M247.79,72.68c-.87-3-2.53-4.5-5-4.5A14.48,14.48,0,0,0,237,69.57l16.37,54.15a.45.45,0,0,0,.42.33.42.42,0,0,0,.41-.33l3.51-17.49V106Z"/><polygon class="cls-3" points="54.87 197.62 69.35 187.7 9.95 187.7 9.95 128.41 0 142.87 0 187.7 0 197.62 9.95 197.62 54.87 197.62"/><polygon class="cls-1" points="880.41 0 865.9 9.89 925.3 9.89 925.33 69.21 935.25 54.76 935.25 9.89 935.25 0 880.41 0"/></g></g></svg>